<svg xmlns="http://www.w3.org/2000/svg" enable-background="new 0 0 47.5 47.5" viewBox="0 0 47.5 47.5"><defs><clipPath id="a" clipPathUnits="userSpaceOnUse"><path d="M 0,38 38,38 38,0 0,0 0,38 Z"/></clipPath></defs><g clip-path="url(#a)" transform="matrix(1.25 0 0 -1.25 0 47.5)"><path fill="#dd2e44" d="m 0,0 c -3,0 -3,-1 -6,-1 -3,0 -3,1 -6,1 -4,0 -9,-2 -9,-9 0,-11 6,-20 10,-20 3,0 3,1 5,1 2,0 2,-1 5,-1 4,0 10,9 10,20 0,7 -5,9 -9,9" transform="translate(25 30)"/><path fill="#77b255" d="M 0,0 C 0,0 3,4 8,4 12,4 14,2 14,2 14,2 10,-1 7,-1 4,-1 0,0 0,0" transform="translate(20 30)"/><path fill="#662113" d="m 0,0 c -0.552,0 -1,0.448 -1,1 0,3.441 1.2,6.615 3.293,8.707 0.391,0.391 1.024,0.391 1.415,0 0.39,-0.391 0.39,-1.024 0,-1.414 C 1.987,6.573 1,3.915 1,1 1,0.448 0.552,0 0,0" transform="translate(19 27)"/></g></svg>