<svg xmlns="http://www.w3.org/2000/svg" enable-background="new 0 0 64 64" viewBox="0 0 64 64"><linearGradient id="a" x1="305.594" x2="361.569" y1="342.871" y2="344.566" gradientTransform="scale(.99996 -.99996) rotate(88.265 376.441 .433)" gradientUnits="userSpaceOnUse"><stop offset="0" stop-color="#ec4130"/><stop offset="1" stop-color="#f96762"/></linearGradient><path fill="url(#a)" d="M32.4,43.1c-0.8,0.7-2,0.8-2.8,0.1c-0.5-0.4-0.7-1-0.7-1.5c0-0.5,0.2-1,0.6-1.4l0,0c2.3-2.3,2.3-6.1,0-8.5
	c-3.9-3.9-3.9-10.3,0-14.1c2.3-2.3,2.3-6.1,0-8.5c-6.7-6.9-17.5-6.9-24.1,0C-1.2,16-2.1,25.7,4.7,36.3c5,7.8,17.5,17.8,23.7,22.5
	c2.1,1.6,5.1,1.6,7.3,0c6.2-4.7,18.6-14.7,23.7-22.5c6.8-10.6,5.9-20.2-0.8-27.1C53.5,4,46.2,2.7,40,5.3c-3,1.3-4.8,4.4-4.7,7.7
	c0.1,2.7-0.9,5.4-2.9,7.5c-2.3,2.3-2.3,6.2,0,8.5C36.3,32.9,36.3,39.2,32.4,43.1z"/></svg>