<svg xmlns="http://www.w3.org/2000/svg" width="64" height="64" enable-background="new 0 0 64 64" viewBox="0 0 64 64"><circle cx="31.5" cy="32.5" r="27.491" fill="#FFF" stroke="#000" stroke-width="2"/><circle cx="32.26" cy="32.5" r="25.781" fill="#FAA73E"/><path fill="none" stroke="#FCE69D" stroke-linecap="round" d="M55.774 28.04c.334 1.349.584 2.792.726 4.333M48.442 15.197c2.364 2.188 5.279 5.704 7.022 10.782M8.75 26.933c-.334 1.349-.584 2.792-.725 4.334M16.445 13.867c-2.364 2.188-5.279 5.705-7.022 10.782"/><path fill="none" stroke="#000" stroke-width="2" d="M40.991,21.618c0,0-5.172-2.107-10.344-1.341  c-5.172,0.767-5.591,4.119-5.591,6.13c0,2.012,2.824,4.885,6.847,5.748c4.023,0.861,9.279,2.106,8.609,6.513  c-0.67,4.405-4.022,5.459-7.661,5.459c-3.641,0-8.524-2.202-9.674-3.353"/><line x1="32.754" x2="32.754" y1="13.956" y2="50.576" fill="none" stroke="#000" stroke-width="2"/></svg>